# xmcd
#
# Track frame offsets:
#	150
#	15642
#	34449
#	50229
#	65860
#	95585
#	99638
#	113965
#	133544
#	153202
#	170700
#
# Disc length: 2469 seconds
#
# Revision: 1
# Processed by: cddbd v1.5.1PL0 Copyright (c) Steve Scherf et al.
# Submitted via: audiograbber 1.83.01
#
DISCID=9f09a30b
DTITLE=Chris Whitley - Soft Dangerous Shores
DYEAR=2005
DGENRE=Blues
TTITLE0=Fireroad (For Two)
TTITLE1=Soft Dangerous Shores
TTITLE2=As Day Is Long
TTITLE3=Valley Of The Innocents
TTITLE4=City Of Women
TTITLE5=Times Square Machine (N.Y.C. Feburary 1991)
TTITLE6=Her Furious Angels
TTITLE7=Last Million Miles
TTITLE8=Medicine Wheel
TTITLE9=End Game Holiday
TTITLE10=Breath Of Shadows
EXTD=
EXTT0=
EXTT1=
EXTT2=
EXTT3=
EXTT4=
EXTT5=
EXTT6=
EXTT7=
EXTT8=
EXTT9=
EXTT10=
PLAYORDER=
